<svg width="247" height="61" viewBox="0 0 247 61" fill="none" xmlns="http://www.w3.org/2000/svg">
    <path d="M239.545.168h-41.137c-4.117 0-7.455 3.57-7.455 7.972v43.992c0 4.403 3.338 7.972 7.455 7.972h41.137c4.117 0 7.455-3.57 7.455-7.972V8.14c0-4.403-3.338-7.972-7.455-7.972z" fill="#FF062E"/>
    <path d="m211.694 30.186 1.284-14.099a.03.03 0 0 1-.004-.016.03.03 0 0 1 .004-.016h12.554l.03.032v4.566h-8.43l-.03.032-.46 5.867a.032.032 0 0 0 .01.01.031.031 0 0 0 .014.003.031.031 0 0 0 .014-.003 5.081 5.081 0 0 1 2.978-1.026c.951-.054 1.9.14 2.765.567a5.944 5.944 0 0 1 2.2 1.88c1.163 1.633 1.745 3.942 1.745 6.93 0 2.793-.693 5.043-2.078 6.748a7.003 7.003 0 0 1-2.493 1.973c-.96.449-2.001.66-3.048.617a7.45 7.45 0 0 1-4.729-1.67 6.29 6.29 0 0 1-.667-.648 8.206 8.206 0 0 1-1.652-2.677c-.38-1-.569-2.072-.558-3.151a.041.041 0 0 1 .013-.024.033.033 0 0 1 .023-.009h4.948a.03.03 0 0 1 .004.016.03.03 0 0 1-.004.017c.025.96.302 1.894.799 2.694.198.301.461.547.767.715.306.168.646.254.99.25.404.003.8-.117 1.142-.347.343-.23.616-.558.789-.949a8.622 8.622 0 0 0 .679-3.885 6.678 6.678 0 0 0-.812-3.646 2.696 2.696 0 0 0-.992-.932 2.496 2.496 0 0 0-1.291-.299 2.514 2.514 0 0 0-1.227.243 2.696 2.696 0 0 0-.989.813l-.309.46h-.036l-3.979-1.101s.036.077.036.065z" fill="#fff"/>
    <path d="M4.566 34v8.502H0V18.327h7.703c.987-.05 1.973.12 2.894.503a7.033 7.033 0 0 1 2.453 1.718 8.13 8.13 0 0 1 1.54 2.678c.343.993.499 2.048.459 3.105a7.942 7.942 0 0 1-.438 3.026 7.55 7.55 0 0 1-1.536 2.583C11.758 33.313 9.942 34 7.625 34H4.565zm0-4.068h3.137c.38.024.758-.046 1.108-.204.35-.159.66-.401.909-.709a4.238 4.238 0 0 0 .714-2.655 5.066 5.066 0 0 0-.726-2.882 2.403 2.403 0 0 0-.851-.805 2.221 2.221 0 0 0-1.106-.283H4.566v7.538zM22.655 38.456h8.018v4.047H18.089V18.328h4.56l.006 20.128zM44.395 37.556H38.17l-1.211 4.947h-4.845l7.061-24.175h4.179l7.11 24.175h-4.845l-1.224-4.947zm-5.232-4.067h4.24l-2.114-8.62-2.126 8.62zM65.38 22.395h-5.596v20.076h-4.579V22.395h-5.498v-4.067h15.672v4.067zM76.928 37.556h-6.226l-1.21 4.947h-4.846l7.062-24.175h4.178l7.11 24.175H78.12l-1.193-4.947zm-5.233-4.067h4.24l-2.132-8.62-2.108 8.62zM96.815 32.64h-7.122v9.863h-4.566V18.328h12.517v4.067h-7.951v6.198h7.122v4.047zM116.194 32.588c0 3.246-.717 5.766-2.15 7.557-1.433 1.792-3.424 2.69-5.971 2.694-2.536 0-4.528-.889-5.977-2.668-1.45-1.778-2.2-4.267-2.253-7.466v-4.132c0-3.32.718-5.91 2.156-7.771a7.409 7.409 0 0 1 2.69-2.152 6.937 6.937 0 0 1 3.305-.646 6.954 6.954 0 0 1 3.27.637 7.431 7.431 0 0 1 2.677 2.109c1.445 1.834 2.18 4.405 2.204 7.713l.049 4.125zm-4.579-4.048c0-2.184-.29-3.805-.872-4.863a3.004 3.004 0 0 0-1.135-1.216 2.747 2.747 0 0 0-1.566-.384 2.762 2.762 0 0 0-1.547.365 3.01 3.01 0 0 0-1.141 1.177c-.606 1.023-.879 2.59-.903 4.669v4.3c0 2.12.297 3.678.89 4.676.289.488.694.884 1.175 1.149.48.264 1.018.386 1.557.353a2.748 2.748 0 0 0 1.516-.343c.467-.259.86-.648 1.136-1.127.581-.976.878-2.487.89-4.533V28.54zM126.295 33.67h-2.265v8.833h-4.566V18.328h7.267c2.289 0 4.057.633 5.305 1.898 1.247 1.265 1.871 3.067 1.871 5.407 0 3.212-1.092 5.46-3.276 6.742l3.96 9.895v.233h-4.911l-3.385-8.833zm-2.265-4.067h2.592c.389.026.778-.049 1.135-.218.356-.169.669-.427.912-.754.486-.76.726-1.67.684-2.59 0-2.426-.884-3.64-2.652-3.64h-2.671v7.202zM143.021 18.328l4.269 17.485 4.24-17.485h5.965v24.175h-4.585v-6.54l.424-10.077-4.517 16.617h-3.107l-4.518-16.617.418 10.076v6.541h-4.566V18.328h5.977zM172.24 37.556h-6.225l-1.211 4.947h-4.845l7.103-24.175h4.179l7.116 24.175h-4.881l-1.236-4.947zm-5.232-4.067h4.239l-2.113-8.62-2.126 8.62z" fill="#001F55"/>
    <path d="M6.413 56.737c.024.913-.284 1.8-.86 2.474-.3.294-.653.52-1.037.665a2.846 2.846 0 0 1-1.197.177 2.655 2.655 0 0 1-1.281-.24 2.84 2.84 0 0 1-1.045-.829 4.976 4.976 0 0 1-.805-3.043v-1.613a4.848 4.848 0 0 1 .836-3.037 2.886 2.886 0 0 1 1.043-.822c.402-.186.839-.27 1.276-.247.407-.03.816.032 1.199.183.383.15.732.386 1.024.692.55.706.853 1.594.86 2.512H4.609a2.795 2.795 0 0 0-.29-1.398 1.153 1.153 0 0 0-.449-.317 1.087 1.087 0 0 0-.533-.066 1.029 1.029 0 0 0-.584.117 1.12 1.12 0 0 0-.44.427 3.99 3.99 0 0 0-.32 1.781v1.807c-.049.664.053 1.33.296 1.943.109.18.262.326.442.42.18.093.382.132.582.111.179.024.36.003.53-.061.171-.064.325-.17.45-.308.224-.405.331-.871.31-1.34l1.81.012zM15.394 56a4.68 4.68 0 0 1-.848 2.991 2.97 2.97 0 0 1-1.068.82 2.786 2.786 0 0 1-1.294.242 2.802 2.802 0 0 1-1.295-.24 2.985 2.985 0 0 1-1.073-.815 4.64 4.64 0 0 1-.872-2.953v-1.632a4.95 4.95 0 0 1 .854-3.083c.29-.368.654-.66 1.066-.851.412-.193.86-.28 1.308-.257.444-.022.886.064 1.293.253a2.93 2.93 0 0 1 1.057.835c.62.874.93 1.955.872 3.05V56zm-1.817-1.6a4.162 4.162 0 0 0-.345-1.943 1.191 1.191 0 0 0-.445-.49 1.086 1.086 0 0 0-.62-.158 1.095 1.095 0 0 0-.614.144 1.196 1.196 0 0 0-.453.465 3.91 3.91 0 0 0-.35 1.846v1.703c-.04.639.078 1.278.344 1.852.116.192.278.347.468.45.19.104.403.152.616.14.207.012.414-.034.598-.136a1.19 1.19 0 0 0 .45-.441 3.724 3.724 0 0 0 .351-1.807V54.4zM18.265 59.923v-9.552h2.367c.463-.024.925.059 1.356.242.43.183.819.463 1.14.82.652.807.992 1.85.95 2.915v1.554a4.365 4.365 0 0 1-.932 2.96c-.331.363-.73.648-1.172.833a3.137 3.137 0 0 1-1.39.241l-2.32-.013zm1.816-7.959v6.353h.545c.234.027.471-.005.692-.093.22-.087.419-.228.58-.412a3.304 3.304 0 0 0 .388-1.761v-1.658a3.635 3.635 0 0 0-.352-1.872 1.442 1.442 0 0 0-.541-.436 1.346 1.346 0 0 0-.67-.12h-.642zM28.832 59.923h-1.817v-9.552h1.817v9.552zM38.176 59.923H36.36l-2.64-6.275v6.275h-1.817v-9.552h1.817l2.653 6.275v-6.275h1.816l-.012 9.552zM47.278 58.835a3.337 3.337 0 0 1-1.278.913 4.483 4.483 0 0 1-1.665.305c-.45.033-.9-.042-1.32-.22a3.03 3.03 0 0 1-1.102-.803 4.633 4.633 0 0 1-.885-2.973v-1.723a4.976 4.976 0 0 1 .812-3.043c.287-.363.65-.648 1.06-.834a2.684 2.684 0 0 1 1.296-.235c.799-.064 1.59.213 2.198.77.549.666.852 1.523.854 2.41h-1.756a2.277 2.277 0 0 0-.358-1.244 1.134 1.134 0 0 0-.409-.266 1.076 1.076 0 0 0-.475-.064 1.087 1.087 0 0 0-.604.128c-.187.1-.344.253-.456.442a3.807 3.807 0 0 0-.345 1.82v1.735c-.045.659.08 1.317.363 1.904.136.204.32.366.532.47.213.103.447.144.68.12.303.017.604-.062.866-.227l.163-.117v-1.755h-1.265v-1.444h3.076l.018 3.931zM54.6 59.924v-9.552h2.767a3.02 3.02 0 0 1 2.126.648c.249.245.444.546.57.883.125.336.179.698.156 1.06.013.44-.09.874-.296 1.256a1.86 1.86 0 0 1-.824.77c.385.112.717.376.927.739.228.413.342.886.327 1.366.026.385-.025.772-.149 1.135s-.32.694-.572.97a2.802 2.802 0 0 1-2.071.712l-2.961.013zm1.816-5.57h.945c.709 0 1.06-.388 1.06-1.172a1.416 1.416 0 0 0-.242-.932 1.052 1.052 0 0 0-.373-.23 1 1 0 0 0-.427-.055h-.963v2.39zm0 1.412v2.552h1.157a.838.838 0 0 0 .405-.068.895.895 0 0 0 .334-.256c.182-.263.27-.587.248-.913 0-.855-.29-1.295-.872-1.295l-1.272-.02zM69.527 56a4.755 4.755 0 0 1-.848 2.991 2.97 2.97 0 0 1-1.067.82 2.786 2.786 0 0 1-1.294.242 2.802 2.802 0 0 1-1.296-.24 2.985 2.985 0 0 1-1.072-.815 4.566 4.566 0 0 1-.872-2.953v-1.632a4.95 4.95 0 0 1 .854-3.083 2.94 2.94 0 0 1 1.065-.851c.412-.193.86-.28 1.308-.257.444-.021.886.066 1.293.254a2.94 2.94 0 0 1 1.057.834c.62.874.93 1.955.872 3.05V56zm-1.817-1.6a4.16 4.16 0 0 0-.345-1.943 1.197 1.197 0 0 0-.445-.489 1.092 1.092 0 0 0-.62-.159 1.09 1.09 0 0 0-.614.143 1.19 1.19 0 0 0-.452.466 3.978 3.978 0 0 0-.358 1.846v1.703c-.038.64.083 1.279.352 1.852.116.192.277.347.467.45.19.104.403.152.617.14.206.011.412-.036.596-.137.184-.102.34-.253.451-.44a3.723 3.723 0 0 0 .352-1.807V54.4zM78.696 56a4.685 4.685 0 0 1-.854 2.991 2.97 2.97 0 0 1-1.068.82 2.786 2.786 0 0 1-1.294.242 2.802 2.802 0 0 1-1.296-.24 2.985 2.985 0 0 1-1.072-.815 4.64 4.64 0 0 1-.872-2.953v-1.632a4.95 4.95 0 0 1 .854-3.083c.29-.368.654-.66 1.066-.851.412-.193.86-.28 1.308-.257.444-.022.886.064 1.293.253a2.93 2.93 0 0 1 1.057.835c.62.875.93 1.955.878 3.05V56zm-1.817-1.6a4.162 4.162 0 0 0-.345-1.943 1.184 1.184 0 0 0-.445-.49 1.078 1.078 0 0 0-.62-.158 1.084 1.084 0 0 0-.612.144 1.184 1.184 0 0 0-.449.465 3.903 3.903 0 0 0-.357 1.846v1.703c-.041.64.08 1.28.351 1.852.116.19.276.345.466.449.189.103.4.152.612.14.207.014.414-.032.598-.134.185-.101.34-.254.45-.442.268-.557.39-1.182.351-1.807V54.4zM86.835 51.964H84.62v7.96h-1.817v-7.96h-2.174v-1.593h6.201l.006 1.593zM95.507 56.738a3.743 3.743 0 0 1-.86 2.474c-.3.293-.653.52-1.037.664a2.845 2.845 0 0 1-1.198.177 2.654 2.654 0 0 1-1.28-.239 2.839 2.839 0 0 1-1.045-.83 4.976 4.976 0 0 1-.812-3.043v-1.613a4.848 4.848 0 0 1 .836-3.037 2.885 2.885 0 0 1 1.046-.824 2.7 2.7 0 0 1 1.28-.244c.406-.032.814.03 1.196.181.382.15.73.387 1.02.693.552.705.858 1.593.866 2.513h-1.817a2.794 2.794 0 0 0-.29-1.4 1.166 1.166 0 0 0-.449-.314 1.097 1.097 0 0 0-.532-.067c-.202-.02-.405.02-.587.116a1.125 1.125 0 0 0-.443.428 4.005 4.005 0 0 0-.315 1.78v1.808c-.048.663.053 1.33.297 1.942.108.181.261.326.442.42.18.094.382.132.581.111.18.02.36-.002.53-.066.17-.064.324-.167.451-.303.223-.405.33-.87.31-1.34l1.81.013zM102.459 57.961h-2.465l-.478 1.943h-1.908l2.792-9.533h1.653l2.816 9.565h-1.931l-.479-1.975zm-2.071-1.606h1.671l-.835-3.393-.836 3.393zM109.635 50.371l1.714 6.904 1.659-6.904h2.356v9.565h-1.817v-2.59l.17-3.99-1.817 6.58h-1.211l-1.763-6.592.17 3.989v2.59h-1.817v-9.552h2.356zM120.197 56.555v3.368h-1.817V50.37h3.028c.39-.02.78.047 1.144.199.365.152.695.384.969.681.267.307.474.666.609 1.059.135.392.196.81.179 1.227.019.407-.039.813-.173 1.194a2.985 2.985 0 0 1-.603 1.021 2.922 2.922 0 0 1-1.007.642c-.372.14-.767.2-1.161.174l-1.168-.013zm0-1.606h1.211a.927.927 0 0 0 .436-.083.993.993 0 0 0 .357-.28c.21-.301.311-.673.285-1.048a1.979 1.979 0 0 0-.291-1.14.936.936 0 0 0-.333-.321.866.866 0 0 0-.436-.113h-1.26l.031 2.985z" fill="#FF062E"/>
</svg>
