<svg width="343" height="77" viewBox="0 0 343 77" fill="none" xmlns="http://www.w3.org/2000/svg">
<path d="M332.648 0H275.522C269.804 0 265.17 4.56374 265.17 10.1934V66.4433C265.17 72.073 269.804 76.6367 275.522 76.6367H332.648C338.365 76.6367 343 72.073 343 66.4433V10.1934C343 4.56374 338.365 0 332.648 0Z" fill="#FF062E"/>
<path d="M293.972 38.5937L295.755 20.5668C295.751 20.5605 295.749 20.5534 295.749 20.5461C295.749 20.5388 295.751 20.5317 295.755 20.5254H313.188L313.23 20.5668V26.4046H313.188H301.524L301.482 26.446L300.843 33.9482C300.847 33.9534 300.852 33.9576 300.857 33.9604C300.863 33.9633 300.87 33.9648 300.876 33.9648C300.883 33.9648 300.889 33.9633 300.895 33.9604C300.901 33.9576 300.906 33.9534 300.91 33.9482C302.121 33.119 303.556 32.6661 305.031 32.6482C306.352 32.5795 307.67 32.8287 308.871 33.374C310.073 33.9194 311.121 34.7445 311.926 35.7783C313.541 37.865 314.348 40.8184 314.348 44.6385C314.348 48.2102 313.387 51.0863 311.464 53.2669C310.517 54.354 309.334 55.2165 308.001 55.79C306.669 56.3636 305.222 56.6333 303.769 56.5791C301.401 56.5948 299.094 55.8442 297.201 54.4427C296.873 54.1893 296.564 53.9125 296.276 53.6147C295.288 52.635 294.508 51.4716 293.981 50.1921C293.454 48.9126 293.191 47.5427 293.207 46.1621C293.209 46.1504 293.215 46.1398 293.224 46.1322C293.233 46.1246 293.245 46.1206 293.257 46.1207H300.128C300.132 46.127 300.133 46.1342 300.133 46.1414C300.133 46.1487 300.132 46.1558 300.128 46.1621C300.162 47.3902 300.547 48.5838 301.238 49.6069C301.512 49.9925 301.877 50.3064 302.302 50.5214C302.727 50.7364 303.199 50.846 303.677 50.8407C304.238 50.845 304.788 50.6915 305.263 50.3981C305.739 50.1047 306.119 49.6836 306.359 49.1845C307.084 47.63 307.407 45.9234 307.301 44.2162C307.412 42.5858 307.019 40.9605 306.174 39.5542C305.825 39.0485 305.351 38.6387 304.796 38.3635C304.241 38.0882 303.625 37.9565 303.004 37.9809C302.419 37.9499 301.835 38.0562 301.3 38.2908C300.765 38.5255 300.294 38.8818 299.926 39.3306L299.497 39.9186H299.447L293.922 38.5109C293.922 38.5109 293.972 38.6102 293.972 38.5937Z" fill="white"/>
<path d="M6.34078 43.2554V54.1279H0V23.2163H10.6969C12.0676 23.1512 13.437 23.3704 14.7161 23.8597C15.9953 24.349 17.1559 25.0974 18.1226 26.0565C19.0578 27.0478 19.7846 28.2115 20.2609 29.4807C20.7372 30.7498 20.9536 32.0992 20.8977 33.4512C20.9685 34.7681 20.7614 36.0851 20.2896 37.3194C19.8177 38.5536 19.0913 39.6781 18.1562 40.6222C16.3285 42.3777 13.8056 43.2554 10.5876 43.2554H6.34078ZM6.34078 38.0552H10.6969C11.2234 38.0856 11.75 37.9961 12.2357 37.7936C12.7214 37.5911 13.1531 37.2811 13.4973 36.8876C14.2236 35.9062 14.575 34.704 14.4896 33.4925C14.5584 32.19 14.205 30.8996 13.4805 29.8077C13.1784 29.3742 12.7726 29.0205 12.2989 28.7779C11.8252 28.5353 11.2981 28.4112 10.7642 28.4165H6.34078V38.0552Z" fill="white"/>
<path d="M31.4598 48.9528H42.5941V54.1279H25.119V23.2178H31.4514L31.4598 48.9528Z" fill="white"/>
<path d="M61.6508 47.8018H53.0057L51.3238 54.1279H44.5962L54.4018 23.2178H60.2043L70.0772 54.1279H63.3495L61.6508 47.8018ZM54.3849 42.6018H60.2716L57.3367 31.5808L54.3849 42.6018Z" fill="white"/>
<path d="M90.7899 28.4178H83.0195V54.0869H76.6618V28.4178H69.026V23.2178H90.7899V28.4178Z" fill="white"/>
<path d="M106.827 47.8018H98.1821L96.5002 54.1279H89.7726L99.5781 23.2178H105.381L115.254 54.1279H108.484L106.827 47.8018ZM99.5613 42.6018H105.448L102.488 31.5808L99.5613 42.6018Z" fill="white"/>
<path d="M134.443 41.5171H124.554V54.1279H118.213V23.2178H135.595V28.4178H124.554V36.342H134.443V41.5171Z" fill="white"/>
<path d="M161.354 41.4508C161.354 45.602 160.359 48.8231 158.369 51.114C156.379 53.4049 153.615 54.5531 150.077 54.5586C146.556 54.5586 143.789 53.4214 141.777 51.1471C139.764 48.8727 138.721 45.6903 138.648 41.5998V36.3169C138.648 32.0719 139.646 28.7597 141.642 26.3805C142.655 25.192 143.934 24.2506 145.379 23.63C146.823 23.0094 148.394 22.7265 149.968 22.8034C151.525 22.7313 153.078 23.01 154.509 23.6185C155.94 24.2269 157.211 25.1489 158.226 26.3142C160.233 28.6603 161.253 31.9477 161.287 36.1762L161.354 41.4508ZM154.997 36.2755C154.997 33.4823 154.593 31.4094 153.786 30.057C153.419 29.4029 152.873 28.864 152.21 28.5022C151.546 28.1404 150.792 27.9704 150.035 28.0117C149.289 27.9692 148.545 28.1307 147.886 28.4785C147.227 28.8264 146.678 29.3468 146.301 29.9825C145.46 31.2907 145.082 33.2946 145.048 35.9526V41.4508C145.048 44.1612 145.46 46.154 146.284 47.4292C146.685 48.0533 147.248 48.5606 147.915 48.8984C148.582 49.2361 149.328 49.3922 150.077 49.3502C150.806 49.3945 151.534 49.243 152.183 48.912C152.831 48.581 153.377 48.0828 153.76 47.4706C154.568 46.223 154.98 44.2909 154.997 41.6743V36.2755Z" fill="white"/>
<path d="M175.381 42.8337H172.236V54.1279H165.895V23.2178H175.987C179.166 23.2178 181.621 24.0265 183.353 25.6439C185.086 27.2613 185.952 29.566 185.952 32.5579C185.952 36.6649 184.436 39.5381 181.403 41.1776L186.902 53.8298V54.1279H180.082L175.381 42.8337ZM172.236 37.6337H175.835C176.376 37.6671 176.916 37.5717 177.411 37.3555C177.906 37.1393 178.34 36.8086 178.678 36.3916C179.352 35.419 179.686 34.256 179.628 33.0795C179.628 29.9772 178.4 28.426 175.945 28.426H172.236V37.6337Z" fill="white"/>
<path d="M198.608 23.2178L204.536 45.5744L210.423 23.2178H218.707V54.1279H212.341V45.7649L212.929 32.8808L206.656 54.1279H202.342L196.068 32.8808L196.648 45.7649V54.1279H190.307V23.2178H198.608Z" fill="white"/>
<path d="M239.183 47.8018H230.538L228.857 54.1279H222.129L231.993 23.2178H237.796L247.677 54.1279H240.899L239.183 47.8018ZM231.918 42.6018H237.804L234.869 31.5808L231.918 42.6018Z" fill="white"/>
<path d="M8.9066 72.3331C8.93895 73.4999 8.51096 74.6336 7.71245 75.4963C7.29526 75.8719 6.80542 76.1608 6.27224 76.3458C5.73907 76.5308 5.17349 76.608 4.60932 76.5728C4.00011 76.609 3.39079 76.5043 2.83004 76.267C2.2693 76.0298 1.77273 75.6666 1.38008 75.2065C0.56509 74.0738 0.170194 72.6998 0.261598 71.3146V69.2527C0.171542 67.864 0.582563 66.4885 1.42212 65.3691C1.81725 64.9141 2.31302 64.5544 2.87136 64.3176C3.42971 64.0807 4.03579 63.973 4.643 64.0028C5.20844 63.9638 5.77584 64.0433 6.30781 64.236C6.83979 64.4287 7.32427 64.7302 7.72929 65.1207C8.49232 66.0236 8.91426 67.1589 8.92343 68.3336H6.40056C6.4359 67.7121 6.29623 67.0932 5.99692 66.5449C5.82464 66.364 5.61159 66.2256 5.37493 66.1407C5.13828 66.0558 4.88466 66.0269 4.63458 66.0564C4.35551 66.0314 4.07488 66.0833 3.82396 66.2061C3.57303 66.3289 3.36166 66.5179 3.21336 66.752C2.87844 67.4639 2.7254 68.2456 2.76763 69.0291V71.3394C2.70038 72.1881 2.84172 73.0402 3.17969 73.8236C3.33013 74.0547 3.54244 74.2403 3.79321 74.3601C4.04398 74.48 4.32349 74.5293 4.60091 74.5026C4.84958 74.5328 5.10198 74.5059 5.33833 74.4241C5.57469 74.3422 5.78858 74.2075 5.96325 74.0306C6.27298 73.5127 6.42208 72.9169 6.39215 72.3165L8.9066 72.3331Z" fill="#FF062E"/>
<path d="M21.3771 71.3863C21.466 72.7595 21.0479 74.1182 20.1998 75.2119C19.7916 75.6661 19.2849 76.024 18.7171 76.2591C18.1494 76.4941 17.5351 76.6004 16.92 76.5699C16.3044 76.6009 15.6895 76.4957 15.1205 76.2622C14.5515 76.0286 14.0429 75.6726 13.6319 75.2202C12.78 74.146 12.3501 72.8053 12.4209 71.4442V69.3575C12.335 67.9474 12.7546 66.5524 13.6066 65.4159C14.008 64.9456 14.5144 64.573 15.0863 64.3273C15.6582 64.0817 16.28 63.9697 16.9032 64C17.5188 63.9712 18.133 64.0816 18.6986 64.3227C19.2642 64.5639 19.7662 64.9293 20.1661 65.3911C21.0281 66.5079 21.4575 67.8908 21.3771 69.2913V71.3863ZM18.8542 69.3409C18.9124 68.4862 18.7474 67.631 18.3749 66.8568C18.2333 66.5948 18.019 66.3778 17.7569 66.2312C17.4949 66.0846 17.1958 66.0143 16.8948 66.0287C16.5992 66.0115 16.3045 66.0751 16.0433 66.2125C15.7821 66.3498 15.5646 66.5556 15.4147 66.8071C15.0476 67.539 14.8796 68.3521 14.927 69.167V71.3448C14.8715 72.1621 15.0369 72.9792 15.4063 73.7131C15.5675 73.9582 15.7916 74.157 16.056 74.2894C16.3203 74.4217 16.6155 74.4829 16.9116 74.4666C17.1989 74.4834 17.4855 74.4238 17.7415 74.2942C17.9974 74.1646 18.2132 73.9696 18.3664 73.7297C18.735 73.0161 18.9034 72.2185 18.8542 71.4194V69.3409Z" fill="#FF062E"/>
<path d="M25.3628 76.4041V64.1888H28.651C29.2935 64.1581 29.9353 64.2634 30.5329 64.4977C31.1306 64.732 31.6703 65.0898 32.1157 65.547C33.0213 66.5785 33.4935 67.9112 33.436 69.2737V71.2612C33.5175 72.6402 33.0533 73.9967 32.1409 75.0459C31.6816 75.5114 31.1267 75.8748 30.5132 76.1119C29.8997 76.349 29.2418 76.4543 28.5837 76.4206L25.3628 76.4041ZM27.8857 66.2261V74.3502H28.6425C28.9676 74.384 29.2961 74.3432 29.6024 74.2311C29.9088 74.1191 30.1847 73.9388 30.4085 73.7043C30.8094 73.022 30.9966 72.2384 30.9467 71.4517V69.3316C31.0172 68.5045 30.8481 67.6746 30.459 66.9383C30.2573 66.6953 29.9992 66.5037 29.7064 66.3798C29.4137 66.2558 29.0949 66.2031 28.7771 66.2261H27.8857Z" fill="#FF062E"/>
<path d="M40.0378 76.3994H37.5149V64.1865H40.0378V76.3994Z" fill="#FF062E"/>
<path d="M53.0134 76.3994H50.4906L46.824 68.3762V76.3994H44.3011V64.1865H46.824L50.5074 72.2098V64.1865H53.0303L53.0134 76.3994Z" fill="#FF062E"/>
<path d="M65.6538 75.0146C65.1624 75.5342 64.5549 75.934 63.8794 76.1822C63.1383 76.4467 62.355 76.5785 61.5668 76.5714C60.9425 76.6135 60.3166 76.5179 59.7347 76.2915C59.1527 76.0652 58.6295 75.7138 58.2029 75.263C57.3385 74.1849 56.9021 72.8338 56.9751 71.4621V69.2593C56.8862 67.8731 57.284 66.4989 58.102 65.3673C58.5011 64.9039 59.0049 64.539 59.5729 64.3017C60.141 64.0645 60.7576 63.9615 61.3733 64.001C62.4832 63.9186 63.581 64.273 64.426 64.9864C65.1881 65.8373 65.6096 66.9323 65.6118 68.0669H63.173C63.1766 67.4994 63.0034 66.9445 62.6768 66.4769C62.5139 66.3253 62.3204 66.2093 62.1088 66.1365C61.8972 66.0637 61.6723 66.0358 61.449 66.0546C61.1596 66.033 60.8698 66.0895 60.6105 66.2178C60.3512 66.3462 60.1323 66.5417 59.9773 66.7833C59.6133 67.5043 59.448 68.3067 59.498 69.1103V71.3296C59.4356 72.1713 59.6101 73.0138 60.0026 73.7641C60.1906 74.0245 60.4452 74.2313 60.7406 74.3637C61.0359 74.496 61.3615 74.5491 61.6845 74.5177C62.1055 74.5396 62.5238 74.4388 62.887 74.2279L63.1141 74.0788V71.8347H61.3565V69.9881H65.6285L65.6538 75.0146Z" fill="#FF062E"/>
<path d="M75.821 76.4043V64.1902H79.6642C80.7172 64.1083 81.765 64.4022 82.616 65.0183C82.9621 65.3318 83.2324 65.7176 83.407 66.1476C83.5817 66.5775 83.6562 67.0405 83.6251 67.5025C83.642 68.0653 83.4993 68.6216 83.2131 69.109C82.9438 69.5454 82.5444 69.8895 82.0693 70.0944C82.6042 70.2371 83.0641 70.5745 83.356 71.0384C83.6733 71.5663 83.8308 72.1725 83.8101 72.7856C83.8465 73.2784 83.7761 73.7732 83.6036 74.2372C83.4311 74.7012 83.1603 75.1237 82.8094 75.4769C82.0053 76.1333 80.9753 76.4595 79.9333 76.3877L75.821 76.4043ZM78.3439 69.2829H79.6558C80.6397 69.2829 81.1275 68.786 81.1275 67.7841C81.1692 67.3593 81.0494 66.9343 80.7911 66.5916C80.6409 66.4598 80.4651 66.3595 80.2742 66.2969C80.0833 66.2342 79.8815 66.2105 79.681 66.2273H78.3439V69.2829ZM78.3439 71.0881V74.3507H79.9502C80.1421 74.3651 80.3348 74.3352 80.5129 74.2633C80.691 74.1914 80.8496 74.0795 80.9761 73.9366C81.2286 73.6003 81.3509 73.1863 81.3209 72.7691C81.3209 71.676 80.9173 71.1129 80.1099 71.1129L78.3439 71.0881Z" fill="#FF062E"/>
<path d="M96.5503 71.3863C96.631 72.7586 96.2137 74.1145 95.373 75.2119C94.9648 75.6661 94.4581 76.024 93.8904 76.2591C93.3226 76.4941 92.7084 76.6004 92.0933 76.5699C91.4776 76.6009 90.8628 76.4957 90.2938 76.2622C89.7248 76.0286 89.2161 75.6726 88.8051 75.2202C87.9456 74.1499 87.5147 72.8064 87.5941 71.4442V69.3575C87.5082 67.9474 87.9279 66.5524 88.7799 65.4159C89.1813 64.9456 89.6877 64.573 90.2595 64.3273C90.8314 64.0817 91.4533 63.9697 92.0764 64C92.6919 63.9724 93.3057 64.0834 93.8711 64.3244C94.4365 64.5655 94.9386 64.9303 95.3393 65.3911C96.2013 66.5079 96.6307 67.8908 96.5503 69.2913V71.3863ZM94.0275 69.3409C94.0857 68.4862 93.9206 67.631 93.5481 66.8568C93.4057 66.5954 93.1913 66.379 92.9294 66.2325C92.6675 66.086 92.3689 66.0153 92.068 66.0287C91.7723 66.0106 91.4773 66.0737 91.2159 66.2112C90.9545 66.3486 90.7371 66.555 90.5879 66.8071C90.2215 67.5394 90.0508 68.3517 90.0918 69.167V71.3448C90.0386 72.1629 90.2069 72.9801 90.5796 73.7131C90.7407 73.9582 90.9648 74.157 91.2292 74.2894C91.4935 74.4217 91.7888 74.4829 92.0849 74.4666C92.3719 74.4817 92.6579 74.4213 92.9135 74.2919C93.1691 74.1624 93.3852 73.9684 93.5397 73.7297C93.9083 73.0161 94.0767 72.2185 94.0275 71.4194V69.3409Z" fill="#FF062E"/>
<path d="M109.283 71.3863C109.368 72.7605 108.947 74.119 108.097 75.2119C107.689 75.6661 107.182 76.024 106.614 76.2591C106.047 76.4941 105.432 76.6004 104.817 76.5699C104.202 76.6009 103.587 76.4957 103.018 76.2622C102.449 76.0286 101.94 75.6726 101.529 75.2202C100.677 74.146 100.247 72.8053 100.318 71.4442V69.3575C100.232 67.9474 100.652 66.5524 101.504 65.4159C101.905 64.9456 102.412 64.573 102.983 64.3273C103.555 64.0817 104.177 63.9697 104.8 64C105.416 63.9712 106.03 64.0816 106.596 64.3227C107.161 64.5639 107.663 64.9293 108.063 65.3911C108.924 66.5088 109.356 67.8903 109.283 69.2913V71.3863ZM106.76 69.3409C106.818 68.4862 106.653 67.631 106.28 66.8568C106.14 66.5941 105.925 66.3766 105.663 66.2298C105.401 66.0831 105.102 66.0133 104.8 66.0287C104.506 66.0112 104.212 66.0747 103.952 66.2122C103.692 66.3496 103.476 66.5556 103.329 66.8071C102.958 67.5381 102.787 68.3513 102.832 69.167V71.3448C102.775 72.1631 102.944 72.9815 103.32 73.7131C103.481 73.957 103.703 74.155 103.966 74.2872C104.229 74.4195 104.522 74.4814 104.817 74.4666C105.105 74.4843 105.392 74.4251 105.648 74.2954C105.904 74.1657 106.119 73.9702 106.272 73.7297C106.645 73.0176 106.814 72.2188 106.76 71.4194V69.3409Z" fill="#FF062E"/>
<path d="M120.585 66.2234H117.507V76.3994H114.984V66.2234H111.965V64.1865H120.576L120.585 66.2234Z" fill="#FF062E"/>
<path d="M132.627 72.33C132.651 73.4954 132.224 74.6261 131.433 75.4933C131.015 75.8689 130.526 76.1579 129.992 76.3429C129.459 76.5278 128.894 76.605 128.33 76.5698C127.72 76.606 127.111 76.5013 126.55 76.2641C125.99 76.0268 125.493 75.6636 125.1 75.2035C124.282 74.0719 123.884 72.6977 123.973 71.3114V69.2495C123.883 67.8606 124.294 66.4851 125.134 65.3657C125.53 64.9096 126.027 64.5491 126.587 64.3122C127.147 64.0753 127.755 63.9683 128.363 63.9993C128.927 63.9594 129.494 64.0385 130.025 64.2313C130.555 64.4241 131.038 64.7261 131.441 65.1172C132.207 66.0191 132.632 67.1546 132.644 68.3303H130.121C130.156 67.7088 130.016 67.0898 129.717 66.5416C129.544 66.3617 129.331 66.224 129.094 66.1392C128.858 66.0544 128.605 66.0249 128.355 66.053C128.074 66.0274 127.792 66.0789 127.54 66.2017C127.288 66.3245 127.075 66.5138 126.925 66.7486C126.594 67.4615 126.444 68.2431 126.488 69.0259V71.3363C126.421 72.1849 126.562 73.0371 126.9 73.8206C127.05 74.0516 127.263 74.2373 127.513 74.3571C127.764 74.4769 128.044 74.5262 128.321 74.4996C128.57 74.5255 128.821 74.4966 129.056 74.4149C129.292 74.3333 129.506 74.201 129.684 74.0276C129.993 73.5096 130.142 72.9138 130.112 72.3134L132.627 72.33Z" fill="#FF062E"/>
<path d="M142.281 73.8922H138.858L138.194 76.3766H135.545L139.422 64.1865H141.718L145.628 76.418H142.945L142.281 73.8922ZM139.405 71.8384H141.726L140.565 67.499L139.405 71.8384Z" fill="#FF062E"/>
<path d="M152.246 64.1865L154.626 73.0144L156.931 64.1865H160.202V76.418H157.679V73.1055L157.915 68.0042L155.392 76.418H153.71L151.263 67.9876L151.498 73.0889V76.4014H148.975V64.1865H152.246Z" fill="#FF062E"/>
<path d="M166.912 72.0969V76.4033H164.39V64.1881H168.594C169.136 64.1621 169.678 64.2489 170.184 64.443C170.69 64.6371 171.148 64.934 171.529 65.3144C171.899 65.7059 172.186 66.166 172.374 66.6679C172.562 67.1698 172.646 67.7034 172.623 68.2378C172.65 68.7573 172.569 69.2769 172.383 69.7641C172.198 70.2514 171.913 70.6959 171.546 71.07C171.14 71.4324 170.664 71.7113 170.148 71.8905C169.631 72.0696 169.083 72.1455 168.535 72.1135L166.912 72.0969ZM166.912 70.0431H168.594C168.802 70.0536 169.009 70.0173 169.2 69.9369C169.391 69.8565 169.56 69.7342 169.696 69.5794C169.988 69.1936 170.128 68.7172 170.091 68.2378C170.12 67.7217 169.978 67.2104 169.688 66.7802C169.57 66.6077 169.411 66.4666 169.225 66.3698C169.038 66.2729 168.83 66.2233 168.62 66.2254H166.87L166.912 70.0431Z" fill="#FF062E"/>
</svg>
